<svg aria-hidden="true" style="position:absolute;width:0;height:0" xmlns="http://www.w3.org/2000/svg" overflow="hidden"><defs><symbol id="github" viewBox="0 0 32 32"><path d="M16 .396c-8.84 0-16 7.164-16 16 0 7.071 4.584 13.067 10.94 15.18.8.151 1.093-.344 1.093-.769 0-.38-.013-1.387-.02-2.72-4.451.965-5.389-2.147-5.389-2.147-.728-1.847-1.78-2.34-1.78-2.34-1.449-.992.112-.972.112-.972 1.607.112 2.451 1.648 2.451 1.648 1.427 2.447 3.745 1.74 4.66 1.331.144-1.035.556-1.74 1.013-2.14-3.553-.4-7.288-1.776-7.288-7.907 0-1.747.62-3.173 1.647-4.293-.18-.404-.72-2.031.14-4.235 0 0 1.34-.429 4.4 1.64 1.28-.356 2.64-.532 4-.54 1.36.008 2.72.184 4 .54 3.04-2.069 4.38-1.64 4.38-1.64.86 2.204.32 3.831.16 4.235 1.02 1.12 1.64 2.547 1.64 4.293 0 6.147-3.74 7.5-7.3 7.893.56.48 1.08 1.461 1.08 2.96 0 2.141-.02 3.861-.02 4.381 0 .42.28.92 1.1.76C27.42 29.455 32 23.455 32 16.395c0-8.836-7.164-16-16-16z"/></symbol><symbol id="phone" viewBox="0 0 32 32"><path d="M22 20c-2 2-2 4-4 4s-4-2-6-4-4-4-4-6 2-2 4-4-4-8-6-8-6 6-6 6c0 4 4.109 12.109 8 16s12 8 16 8c0 0 6-4 6-6s-6-8-8-6z"/></symbol><symbol id="email" viewBox="0 0 32 32"><path d="M29 4H3C1.35 4 0 5.35 0 7v20c0 1.65 1.35 3 3 3h26c1.65 0 3-1.35 3-3V7c0-1.65-1.35-3-3-3zM12.461 17.199L4 23.789V8.113l8.461 9.086zM5.512 8h20.976L16 15.875 5.512 8zm7.278 9.553L16 21l3.21-3.447L25.79 26H6.211l6.58-8.447zm6.749-.354L28 8.113v15.676l-8.461-6.59z"/></symbol><symbol id="linkedin" viewBox="0 0 32 32"><path d="M12 12h5.535v2.837h.079c.77-1.381 2.655-2.837 5.464-2.837C28.92 12 30 15.637 30 20.367V30h-5.769v-8.54c0-2.037-.042-4.657-3.001-4.657-3.005 0-3.463 2.218-3.463 4.509V30H12V12zM2 12h6v18H2V12zM8 7a3 3 0 11-6 0 3 3 0 016 0z"/></symbol></defs></svg>